<svg xmlns="http://www.w3.org/2000/svg" viewBox="0 0 200 200"><defs><style>.a{fill:#c63214;}</style></defs><title>features</title><path class="a" d="M100,1.7a55,55,0,0,0-55,55,56.5,56.5,0,0,0,7.3,27.5c13.5,24.3,17.1,38,19.3,51.2,1.8,11.1,4.4,13.7,12.8,13.7h31.2c8.4,0,10.9-2.6,12.8-13.7,2.2-13.2,5.8-26.9,19.3-51.2A56.5,56.5,0,0,0,155,56.7,55,55,0,0,0,100,1.7Zm30.6,78.8s13.1-36.7-32.6-62c0,0,19.9-4.5,34.9,17.7S130.6,80.5,130.6,80.5Z"/><rect class="a" x="77.4" y="153.1" width="45.2" height="7.86" rx="2.9" ry="2.9"/><rect class="a" x="77.4" y="164.9" width="45.2" height="7.86" rx="2.9" ry="2.9"/><rect class="a" x="77.4" y="176.6" width="45.2" height="7.86" rx="2.9" ry="2.9"/><path class="a" d="M100,198.3c6.9,0,14.7-3.9,14.7-9.8H85.3C85.3,194.3,93.1,198.3,100,198.3Z"/></svg>