<svg xmlns="http://www.w3.org/2000/svg" viewBox="0 0 200 200"><defs><style>.a{fill:#c63214;}</style></defs><title>features_Key3</title><path class="a" d="M182.9,27.4A61.6,61.6,0,0,0,76.8,87a4.5,4.5,0,0,1-.6,4.4L5.7,161.9c-1.3,1.3-2.5,2.9-2.1,4.8l.8,21.7c-.4,3.4,2.3,6.1,5.9,6.3L32.6,196c1.9,0,4-.2,5.3-1.5l6.3-6.3c1.1-1.1,1.5-3,1.5-5l.2-10.9a1.3,1.3,0,0,1,1.3-1.3h0l10.1.2a3.9,3.9,0,0,0,4-3.8q0-.1,0-.2l.2-9.7a1.3,1.3,0,0,1,1.3-1.3h9.9a3.9,3.9,0,0,0,4-3.8q0-.1,0-.2l-.2-10.1a1.3,1.3,0,0,1,1.3-1.3H89c1.7-.2,3.8-.4,5-1.5l14.1-14.1a4.1,4.1,0,0,1,4-1.3A61.7,61.7,0,0,0,179,110.4c1.3-1.3,2.5-2.9,4-4.4C200.8,83,201,50,182.9,27.4ZM86.3,103.2l-1.8,2.6L80.8,111l-9,8.7L53.6,137.2l-18,17.4-9,8.7-5.3,3.6-2.7,1.7-2.8,1.7,1.8-2.7,1.8-2.6,3.7-5.2,9.1-8.7,18.1-17.4,18.1-17.4,9-8.7,5.3-3.5,2.7-1.7,2.7-1.7Zm74.7-44a13.9,13.9,0,0,1-19.7.1h-.1a14,14,0,1,1,19.8,0Z"/></svg>