<svg xmlns="http://www.w3.org/2000/svg" viewBox="0 0 200 200"><defs><style>.a{fill:#c63214;}</style></defs><title>features</title><path class="a" d="M95.6,199.2c-46-3.1-80.5-40.2-81.6-86h0c.1-1.5,0-2.9.1-4.4a3.7,3.7,0,0,1,0-.5v-.9a11.8,11.8,0,0,1,.3-3.2h0c.5-4.6.1-2.8.7-5.5a9.5,9.5,0,0,1,.5-2.4c1.3-6.4.5-3.2,2.5-9.5a7.2,7.2,0,0,1,.6-2.1c3.2-10.1,8.9-19,15.6-27.1l-3.4-3.4-.8.8a8,8,0,0,1-11.3.4,8,8,0,0,1,.4-11.3L30.9,32.5c2.4-2.3,4.1-2.3,7.3-2.4h0c3.3,1.3,2,.4,4.1,2.1,3.2,3.7,2.6,7.8-.4,11.3l-.8.8,3.4,3.4c1.4-1.1,2.6-2.3,4-3.3h.1l.6-.4h.1l1.4-.9h.1c1.5-.9,2.9-2,4.4-3l.6-.4L60.2,37h0l1.1-.6h0l1.9-1c3-1.5,1.1-.6,5.7-2.4l2-.8a14.2,14.2,0,0,1,3.6-1.1c5.8-2.2,12-2.9,18.2-3.5V22.8H89A11,11,0,0,1,89,.7H111a11,11,0,1,1,0,22.1h-3.9v4.8c2,.3,4,.2,5.9.6h.8l7.6,1.6h.4l3.9,1.2,1.5.5a17.3,17.3,0,0,1,2.9,1c2.5.8.6.2,5.4,2.3l2,.9a11.1,11.1,0,0,1,2.5,1.4c5.7,2.7,10.6,6.4,15.4,10.4l3.4-3.4-.8-.8a8,8,0,0,1-.4-11.3,6.8,6.8,0,0,1,3-1.7l1-.4h2.1c1.2.4,2.4.8,3.5,1.3h0l.4.3,1.2.9h0l11.7,11.7a7.7,7.7,0,1,1-10.9,10.9l-.8-.8-3.4,3.4c.8,1,1.8,2,2.6,3.1h0l.5.6.3.4,1.8,2.7h0a26,26,0,0,1,2.1,3.1h0a13.6,13.6,0,0,1,1.4,2.2c2.1,3.5,1.3,1.9,2.6,4.8s.5.9,3.2,7.2a11.6,11.6,0,0,1,1.2,3.2c2.4,7.8,1.6,4.4,2.8,10.1v.3c1.5,5.8,1.8,11.8,2,17.8a41.7,41.7,0,0,1-.1,4.6,11.4,11.4,0,0,1-.2,1.7c-.7,7.1-.2,4.5-.9,7.8a6.8,6.8,0,0,1-.3,1.5c-1.4,6.6-.6,4-1.9,8.1v.4c-5.4,18.3-16.8,35.2-32.8,46a13.4,13.4,0,0,1-3.2,2.2,55.6,55.6,0,0,1-10.6,5.8,6.2,6.2,0,0,1-2,.8c-10.7,5-22.3,6.8-34,7.1Zm4.4-29.7a3.3,3.3,0,0,0-3.3,3.3v17.6h6.6V172.8c-.4-2.1,0-1-2-3.1Zm-7.3,12.9c-1.1.3-.7,0-1.2,1l-.7,6.5,2.2.2.7-6.5v-.2l-.2-.6Zm14.5,0-.4.2c-.5.3-.3.1-.5,1l.7,6.5,2.2-.2-.2-1.6-.5-4.9A1.1,1.1,0,0,0,107.3,182.4Zm-21.7-1.1a1.1,1.1,0,0,0-1.3.8l-1.4,6.4,2.2.4,1.4-6.4A1.1,1.1,0,0,0,85.5,181.2Zm28.9,0c-.9.6-.6.2-.8,1.3l1.4,6.4,2.2-.4-1.4-6.4A1.1,1.1,0,0,0,114.5,181.2Zm-35.9-1.9a1.1,1.1,0,0,0-1.4.7l-2,6.2,2.1.7,2-6.2A1.1,1.1,0,0,0,78.5,179.4Zm43,0-.6.5c-.3.2,0,0-.1.9l2,6.2,2.1-.7-2-6.2A1.1,1.1,0,0,0,121.5,179.4Zm-50.6-2.6-.6.6-2.7,6,2,.9,2.7-6a1.1,1.1,0,0,0-.6-1.5Zm58.2,0h-.8l-.5.6c-.2.3-.1,0,0,.9l2.7,6,2-.9-2.7-6ZM70.6,161.6c-2.8.8-1.9,0-3.3,1.6l-8.8,15.2c2.7,1.9.9.7,5.7,3.3l8.8-15.2a3.3,3.3,0,0,0-1.2-4.5h-.2Zm58.8,0-1.2.4-.4.3c-1.6,1.2-1.4,2.6-.8,4.2l8.8,15.2c4.9-2.6,3-1.4,5.7-3.3l-8.8-15.2C131.2,161.6,132.2,162.3,129.4,161.6Zm-70.7,7.7c-1,.2-.6-.1-1.1.4l-3.9,5.4,1.8,1.2,3.8-5.3a1.1,1.1,0,0,0-.2-1.5h0Zm82.5,0-.4.2-.2.2c-.4.4-.2.9,0,1.3l3.8,5.3,1.8-1.2-3.9-5.4C141.9,169.2,142.2,169.5,141.3,169.3Zm-88.2-4.6c-1,.1-.6-.1-1.2.3l-4.4,4.9a11.8,11.8,0,0,0,1.7,1.5l4.4-4.9a1.1,1.1,0,0,0-.1-1.6Zm93.8,0-.4.2-.3.4c-.1,1-.2.6.2,1.2l4.4,4.9a12,12,0,0,0,1.7-1.5l-4.4-4.9C147.5,164.6,147.9,164.7,146.9,164.7Zm-99.7-5.2-.4.2-4.9,4.4a12,12,0,0,0,1.5,1.7l4.9-4.4a1.1,1.1,0,0,0,.1-1.6C47.8,159.3,48.1,159.5,47.2,159.5Zm105.7,0a1.5,1.5,0,0,0-1.2.3,1.1,1.1,0,0,0,.1,1.6l4.9,4.4a12,12,0,0,0,1.5-1.7l-4.9-4.4ZM42.6,153.7l-.4.2-5.3,3.8a15.5,15.5,0,0,0,1.2,1.8l5.4-3.9a1.1,1.1,0,0,0,.2-1.5C43.2,153.6,43.6,153.8,42.6,153.7Zm114.8,0a1.5,1.5,0,0,0-1.1.4,1.1,1.1,0,0,0,.2,1.5l5.4,3.9a15.5,15.5,0,0,0,1.2-1.8l-5.3-3.8ZM48,139.8l-1.2.4-15.2,8.8c2.6,4.9,1.4,3,3.3,5.7L50,145.9a3.3,3.3,0,0,0,1.2-4.5C49.8,139.8,50.8,140.5,48,139.8Zm104,0c-1.9.4-2,.2-3.3,1.6a3.3,3.3,0,0,0,1.2,4.5l15.2,8.8c1.9-2.7.7-.9,3.3-5.7l-15.2-8.8ZM35.9,140.9H35l-6,2.7.9,2,6-2.7a1.1,1.1,0,0,0,.6-1.5h-.1Zm128.3,0-.6.6c0,1.1-.2.6.6,1.5l6,2.7.9-2-6-2.7Zm3.4-6.9h-.8l-.5.6a1.1,1.1,0,0,0,.7,1.4l6.2,2,.7-2.1Zm-135,0-6.2,2,.7,2.1,6.2-2a1.1,1.1,0,1,0-.7-2.1Zm136.8-7.2-.8.2h0l-.5.7a1.1,1.1,0,0,0,.8,1.3l6.4,1.4.4-2.2Zm-138.6,0-6.4,1.4.4,2.2,6.4-1.4a1.1,1.1,0,1,0-.5-2.2Zm-1-7.3-6.5.7.2,2.2,6.5-.7a1.1,1.1,0,1,0-.2-2.2Zm140.7,0-.7.2c-.4.1-.1,0-.5.8a1.1,1.1,0,0,0,1,1.2l6.5.7.2-2.2ZM51.5,66.9c-2,.1-1.2-.2-2.4.6l-.4.7c-.6,1,.1,1.8.6,2.4L94,110.8h0a4.3,4.3,0,0,0-.6,2.4,6.6,6.6,0,1,0,13.2,0,6.9,6.9,0,0,0-5.3-6.5H100c-2,.2-.9,0-3.1.9L52.3,67.3ZM40.4,109.9H22.8v6.6H40.4a3.3,3.3,0,1,0,0-6.6Zm136.8,0H159.6a3.3,3.3,0,0,0,0,6.6h17.6v-6.6Zm-.5-5.9-6.5.7a1.1,1.1,0,1,0,.2,2.2l6.5-.7Zm-153.2,0-.2,2.2,6.5.7a1.1,1.1,0,1,0,.2-2.2h0Zm151.9-8-6.4,1.4a1.1,1.1,0,1,0,.5,2.2l6.4-1.4Zm-150.5,0-.4,2.2,6.4,1.4a1.1,1.1,0,1,0,.5-2.2h-.6Zm148.3-7.8-6.2,2a1.1,1.1,0,0,0,.7,2.1l6.2-2Zm-146.2,0-.7,2.1,6.2,2a1.1,1.1,0,0,0,.7-2.1h0ZM165.1,71.8,150,80.6a3.3,3.3,0,0,0,3.3,5.7l15.2-8.8C165.8,72.7,167,74.6,165.1,71.8Zm-130.3,0c-1.9,2.7-.7.9-3.3,5.7l15.2,8.8A3.3,3.3,0,1,0,50,80.6L47.3,79Zm-4.9,9-.9,2,6,2.7a1.1,1.1,0,0,0,.9-2h0Zm140.2,0-6,2.7a1.1,1.1,0,0,0,.9,2l6-2.7ZM38.2,66.9a15.5,15.5,0,0,0-1.2,1.8l5.3,3.8a1.1,1.1,0,1,0,1.3-1.8h-.2Zm123.7,0-5.4,3.9a1.1,1.1,0,1,0,1.3,1.8l5.3-3.8A15.9,15.9,0,0,0,161.8,66.9Zm-5.2-6.2-4.9,4.4a1.1,1.1,0,1,0,1.5,1.6l4.9-4.4A11.8,11.8,0,0,0,156.6,60.8Zm-113.3,0a11.8,11.8,0,0,0-1.5,1.7l4.9,4.4a1.1,1.1,0,0,0,1.5-1.6l-.3-.2Zm92.3-16L126.9,60a3.3,3.3,0,0,0,5.7,3.3l8.8-15.2C138.7,46.2,140.5,47.4,135.7,44.8Zm-71.4,0c-4.9,2.6-3,1.4-5.7,3.3l8.8,15.2.4.5c1.2,1.6,2.6,1.2,4.1.7A3.3,3.3,0,0,0,73.1,60l-2.4-4.1ZM49.2,55.1a11.8,11.8,0,0,0-1.7,1.5l4.4,4.9H52c.5.5.9.3,1.4,0a1.1,1.1,0,0,0,.1-1.6l-.9-1Zm101.7,0L146.4,60a1.1,1.1,0,0,0,0,1.5h.1a1.1,1.1,0,0,0,1.6-.1l4.4-4.9A12,12,0,0,0,150.8,55.1Zm-95.3-5-1.8,1.2,3.9,5.4.3.2c.4.4.9.2,1.3,0a1.1,1.1,0,0,0,.2-1.5l-1-1.4Zm88.9,0-3.8,5.3a1.1,1.1,0,1,0,1.8,1.3l3.9-5.4ZM100,36H96.7V54c.2,2,1.6,2.6,3.2,2.9a3.3,3.3,0,0,0,3.3-3.3V36.1Zm30.4,6.3-2.7,6a1.1,1.1,0,0,0,2,.9l2.7-6Zm-60.8,0-2,.9,2.7,6a1.1,1.1,0,0,0,2-.9l-1.8-4.1Zm7.6-2.8-2.1.7,2,6.2.2.2c.6.7.2.4,1.2.5a1.1,1.1,0,0,0,.7-1.4l-.4-1.3Zm45.6,0-2,6.2a1.1,1.1,0,0,0,2.1.7l2-6.2Zm-7.8-2-1.4,6.4a1.1,1.1,0,1,0,2.2.5l1.4-6.4ZM85,37.5l-2.2.4,1.4,6.4.3.4c.4.6.1.3,1.1.5a1.1,1.1,0,0,0,.8-1.3l-.2-1Zm8-1.1-2.2.2.7,6.5.3.6c.2.4,0,.1.9.4a1.1,1.1,0,0,0,1-1.2v-.7Zm13.9,0-.7,6.5a1.1,1.1,0,0,0,2.2.2l.7-6.5ZM111,9.5H89a2.2,2.2,0,1,0,0,4.4H111a2.2,2.2,0,0,0,0-4.4Z"/></svg>