<svg xmlns="http://www.w3.org/2000/svg" viewBox="0 0 1132.86 123.66"><defs><style>.a{fill:#f5f5ff;}.b{fill:#c63214;}.c{fill:#8a8a9b;}</style></defs><title>Logo_Long</title><path class="a" d="M23.32,21.58H70.76c12,0,14.88.37,18.42,2.33,3.72,2,5.58,5.58,5.58,10.51,0,4.74-1.77,13.3-4,19.72C88.25,61.11,83.22,66,77,67.35c-3.81.74-7.26,1-14.51,1H32.15L28.9,83.63H10.11ZM62.76,53.3c5.49,0,7.72-.65,9.49-2.7,1.49-1.86,2.6-5.58,2.6-8.93,0-2.23-.74-3.53-2.42-4.28-1.49-.65-2.23-.74-6.14-.74H38.85L35.32,53.3Z"/><path class="a" d="M113.83,21.58h18.88l-10,46.7h42.7L162.2,83.63H100.62Z"/><path class="a" d="M217.92,21.58h25.3l20.74,62H243.32L239.5,72.56h-40l-8.28,11.07H169.83Zm17.77,38L227.5,34.88,209,59.63Z"/><path class="a" d="M295.88,62.14,269,21.58h24.09l15.44,25.67,26.23-25.67h23.63L314.85,62.14,310.2,83.63h-19Z"/><path class="a" d="M370.11,21.58h56c7.16,0,10.88.56,13.67,2.23,3.35,1.86,4.84,4.56,4.84,8.65,0,5.21-1.77,11.72-4,14.88-2,2.79-4.19,3.91-9.12,4.84,6.42.65,9.49,3.72,9.49,9.21,0,6.6-2.7,13.49-6.79,17.21s-8.65,5-18.7,5H356.9Zm42,48.28c4.47,0,5.4-.09,6.88-.93a7.53,7.53,0,0,0,3.16-6.23c0-2-.74-3.16-2.23-3.72-1-.37-1.77-.47-6-.47h-33.3L378.3,69.86Zm2.88-23.53c4.37,0,5.86-.28,7.26-1.3a7.07,7.07,0,0,0,2.6-5.49c0-2-.74-3.16-2.42-3.72-1.12-.37-2-.47-5.58-.47H385.55l-2.33,11Z"/><path class="a" d="M540.25,23.91c3.91,2,6,6.33,6,12.65,0,3.26-.65,7.44-3.07,18.6-2.33,10.51-4.28,15.72-7.72,19.91-4.65,5.58-10.79,8.19-20.93,8.84-3.91.19-12,.37-20.28.37-21.67,0-26.7-.47-31.81-3-3.91-2-6-6.23-6-12.47,0-3.63.84-8.46,3.53-20.74,3.53-16.37,8-22.33,19-25.3,5.4-1.49,11.44-1.86,27.26-1.86C531.23,20.93,534.86,21.21,540.25,23.91Zm-58.6,17.3c-2,3.53-4.93,15.81-4.93,21.12,0,5.77,2.79,6.79,18.79,6.79,8.37,0,13.12-.09,16.37-.37,7.26-.65,10-3.44,12.19-12.47,1.58-7,2.33-11.16,2.33-13.67,0-5.86-2.14-6.51-21.21-6.51C487.23,36.09,484.16,36.74,481.65,41.21Z"/><path class="a" d="M640.9,23.91c3.91,2,6,6.33,6,12.65,0,3.26-.65,7.44-3.07,18.6-2.33,10.51-4.28,15.72-7.72,19.91-4.65,5.58-10.79,8.19-20.93,8.84-3.91.19-12,.37-20.28.37-21.67,0-26.7-.47-31.81-3-3.91-2-6-6.23-6-12.47,0-3.63.84-8.46,3.53-20.74,3.53-16.37,8-22.33,19-25.3,5.4-1.49,11.44-1.86,27.26-1.86C631.88,20.93,635.51,21.21,640.9,23.91Zm-58.6,17.3c-2,3.53-4.93,15.81-4.93,21.12,0,5.77,2.79,6.79,18.79,6.79,8.37,0,13.12-.09,16.37-.37,7.26-.65,10-3.44,12.19-12.47,1.58-7,2.33-11.16,2.33-13.67,0-5.86-2.14-6.51-21.21-6.51C587.88,36.09,584.81,36.74,582.3,41.21Z"/><path class="a" d="M668.16,21.58H687l-4.93,23.16h10l30.51-23.16h26l-42.14,30.7,32.37,31.35H711.42l-23-23.81H679l-5.12,23.81H655Z"/><path class="b" d="M763,21.58h65.86l-3.07,14h-47L776.07,48h44.74l-3.07,14H773.09l-4.56,21.58H749.74Z"/><path class="b" d="M843.88,21.58h18.88l-13.21,62H830.67Z"/><path class="b" d="M873.93,21.58h20.84l14.51,46.88,35-46.88h21l-47.53,62H893.84Z"/><path class="b" d="M1045.37,21.58l-3,14h-50L990,46.32h47.35l-2.6,12.28H987.42l-2.33,11h50.79l-3,14H963.51l13.21-62Z"/><path class="a" d="M1099.28,22.44c-1,21-6.05,37.08-22.5,56.88-16.75,20.17-42.7,29.56-77.1,29.56H3.17L0,123.66H999.68c38.3,0,67.46-12.11,86.69-35.28,17.93-21.62,24.44-42.18,25.85-64.62L1107,18Z"/><polygon class="a" points="1078.21 42.79 1106.65 21.21 1128.21 49.66 1131.13 28.43 1109.56 0 1081.13 21.56 1078.21 42.79"/><path class="c" d="M1111.14,123.66h-1.85V111.32h-4.66v-1.7h11.12v1.7h-4.62Zm21.73,0H1131V111.43l-.07.22-.11.26-.11.26-4.91,11.49H1124l-4.91-11.34-.11-.22-.11-.26a2.46,2.46,0,0,1-.11-.26v12.08h-1.85v-14h3l3.84,9,.63,1.44.3.7.19.48.52-1.18.59-1.44,3.84-9h3Z"/></svg>