<svg xmlns="http://www.w3.org/2000/svg" viewBox="0 0 3743.2 2328"><defs><style>.a{opacity:0.7;}.b{fill:#282838;}</style></defs><title>PB5</title><g class="a"><path class="b" d="M3115.1,686.9c-15.2-95.6-35.2-166.1-65.2-206.8-51.5-69.3-159.8-125.1-260.2-125.4-471.7-26.9-913.2-27.3-1385-5a446,446,0,0,0-109.7,13v-.2l-4.1,1.2q-13.2,3.5-25.8,7.8l-428.4,129c-15.7,6.1-49.6,19.5-79.8,32.7v.3c-28.8,14.4-54,32.8-74.5,54.6-35.3,37-42.2,77-51.7,132.1-2.2,12.6-4.5,25.7-7.3,40.1-37.6,190.8-38.1,386.3-1.4,585.2,2.6,14.2,4.7,27,6.8,39.4,9.6,58,15.9,96.4,51.2,145.5,48.8,68.8,135.9,121.7,239.2,144.2,99.7,26.8,201.7,53.3,303.3,78.6,51.7,12.9,100.1-6.6,122.9-50.3l50.1-99.5,105.4-209.3.4.2,3.4-7.9c22-51,71.9-79.3,127-71.9s105,50.4,126.9,109.9l3.7,10h.3l79.1,198.3,75.3,188.7c22.1,56.7,68.4,100,118.8,111.1l3.9.8c101.6,18.8,203.6,36.3,303.3,51.9,101.7,22.1,182.3,3.4,226.4-51.8l.3.5,447.9-312.1c21.7-12.2,39.1-28.6,51.3-49.2,28.2-48,39.2-86.6,56.3-196.8C3160.9,1142.4,3152.9,926.9,3115.1,686.9Zm-772.3,1277h-.5c-99.6-15.3-201.6-32.4-303.1-50.9-45.1-8.4-86.8-46.4-106.4-96.9l-72.6-182-85.7-215.1v-.3c-24.8-66.7-80.8-114.7-142.7-122.9s-117.9,23.6-142.9,80.4l-114,226.2-45.2,89.6c-19.7,37.8-61.6,54.8-106.5,43.8-101.5-25-203.5-51.2-303.1-77.7h-.5c-97.9-21-180.1-70.3-225.5-134.5-32.6-45.4-38.3-80.3-47.8-137.9-2.1-12.5-4.2-25.4-6.8-39.8-36.3-197.7-35.8-392,1.4-581.7,2.8-14.5,5.1-27.7,7.3-40.5,9.4-54.7,15.6-90.9,47.7-124.6,50.8-54.2,133.2-85.4,225.9-84.8h.5q72.9-3.8,146-6.6c322.8-13,647.9-13.9,971.3-.6q151.9,6.2,303.1,16.6h.5c94.4.6,176,42.8,224.3,116.4l1.3,1.9c27.2,42.7,38.1,110.3,52.8,216.9,37.4,273.8,38.5,549.7,3,816.1l-1.2,9.1c-15.9,116.7-26.6,158.9-52.9,210.3C2553.9,1926.5,2498.5,1997.3,2342.8,1963.9Zm765-593.6c-16.6,107.2-27.2,144.5-54.1,190.2-6.6,11.2-19.5,27.7-42.4,41.7l-.2-.3c-20.8,13.2-44,28.5-65.7,42.9h.5L2595,1889.1c21.4-47.2,31.8-94.6,46.5-204.1l.5-3.7c35.8-269.4,34.7-548.6-3-825.5-13.3-97-23.7-163-46.4-209.5a182.6,182.6,0,0,0-10.1-18.1c-51.5-80-138.6-125.6-239-126q-198.4-13.1-398.1-18.8c-290.3-8.5-581.7-5.9-871.1,6.5q-76.4,3.3-152.6,7.4a412.8,412.8,0,0,0-42.1,2.1l319-96.1-.3.2c42.9-12.9,70.3-19.6,87.3-23,36.3-10.7,76.7-16.4,119.5-16.1h.5c471.3-21.1,912.3-19.5,1383.6,8.7h.5c95.2.5,198.6,54,246.8,118.8,27.2,37,46.8,105.2,61.5,197.5C3135.3,926.6,3143.3,1139.4,3107.8,1370.3Z"/><path class="b" d="M971.4,1050.1c-.2,93.1,59.2,181.4,143.1,225.9a255.5,255.5,0,0,0,83.3,27.4c125.1,17.9,227-74.7,227.1-206.4s-101.4-245.4-226.4-253.3c-52.6-3.3-101,11.2-139.5,38.1C1005.9,918.8,971.6,979.6,971.4,1050.1ZM1061,902.8c36.8-28.9,84.9-44.8,137.5-41.3,115.3,7.7,209,112.5,208.9,233.7s-94.1,206.6-209.5,190.4a236.2,236.2,0,0,1-87.1-30.8c-71.9-42.4-121.9-120.5-121.8-202.8C989.1,990.6,1017,937.4,1061,902.8Z"/><path class="b" d="M2291.8,1187.4c0-150.8-101.6-280-226.6-287.9s-226.8,100.2-226.9,241,101.5,270,226.6,287.9S2291.7,1338.2,2291.8,1187.4Zm-226.9,220.5c-115.4-16.2-209.2-135.3-209.1-265.6s94-230,209.3-222.3,209.1,126.8,209.1,265.6S2180.2,1424,2064.8,1407.9Z"/><path class="b" d="M2888.4,501.2c-38.4-22.1-83.2-52-239-77.4-71.1-11.6-134.7,17.2-152.3,34.2-5.6,5.4-2.2,13.9,6.1,15.3,41.5,6.7,148.3,28.3,197.5,78.3,18.9,19.2,47.7,29.7,77,27.4s64.5-10.2,91.4-31.5C2884.6,535.1,2905.9,511.3,2888.4,501.2Z"/></g></svg>