<svg xmlns="http://www.w3.org/2000/svg" viewBox="0 0 1160 1160"><defs><style>.a{fill:#f5f5ff;}.b{fill:#c63214;}</style></defs><title>Square clear</title><path class="a" d="M262.35,235.13h320.4c81,0,100.52,2.51,124.39,15.71,25.13,13.82,37.69,37.69,37.69,71,0,32-11.94,89.84-27,133.19-17,47.12-50.89,79.79-93,89.21-25.76,5-49,6.91-98,6.91H322L290.9,699.24H164ZM528.72,449.36c37.07,0,52.15-4.4,64.08-18.22,10.05-12.56,17.59-37.69,17.59-60.31,0-15.08-5-23.87-16.34-28.9-10-4.4-15.08-5-41.46-5H367.26L343.39,449.36Z"/><path class="b" d="M355,747.16h0a96.38,96.38,0,0,0-4.47-9.47c-1.41-2.69-3-5.43-4.92-8.63-3.29-5.36-6.91-10.7-10.78-15.86-3.48-4.66-7.28-9.36-11.32-14,4-4.64,7.85-9.35,11.34-14,3.86-5.15,7.49-10.5,10.8-15.9,1.91-3.14,3.51-6,4.88-8.59a95.7,95.7,0,0,0,4.48-9.53L362.15,633,344,640.19a95.75,95.75,0,0,0-9.49,4.46c-2.67,1.4-5.5,3-8.65,4.92-5.38,3.3-10.72,6.92-15.87,10.78-4.66,3.49-9.37,7.29-14,11.33-4.64-4-9.34-7.84-14-11.32-5.15-3.86-10.5-7.5-15.9-10.8-3.13-1.9-5.94-3.5-8.59-4.88a95.85,95.85,0,0,0-9.53-4.48L229.84,633,237,651.14a95.55,95.55,0,0,0,4.46,9.49c1.4,2.68,3,5.51,4.92,8.65,3.3,5.38,6.92,10.72,10.78,15.87,3.49,4.67,7.3,9.38,11.34,14-4,4.65-7.84,9.36-11.31,14-3.87,5.16-7.5,10.5-10.8,15.89-1.91,3.14-3.51,5.95-4.89,8.58a96.61,96.61,0,0,0-4.49,9.51l-7.26,18.23L248,758.13a96.22,96.22,0,0,0,9.47-4.47c2.69-1.41,5.43-3,8.64-4.92,5.37-3.29,10.7-6.92,15.86-10.78,4.66-3.48,9.38-7.29,14-11.34,4.66,4,9.37,7.85,14,11.33,5.16,3.86,10.5,7.5,15.89,10.8,3.19,1.94,5.91,3.5,8.58,4.89a97.07,97.07,0,0,0,9.51,4.49l18.23,7.26Z"/><polygon class="b" points="898.04 557.63 963.73 501.32 1020 567.05 1024 515.27 967.73 449.58 902.04 505.85 898.04 557.63"/><path class="b" d="M523.88,879.75l49.2,1.7C703.82,886,802.94,850,873.9,778.77,940.09,712.28,968,645.85,979.43,571.62l7.71-81-19.86-26.9-23.55,23.88-6.92,75.68c-9.69,69.51-31.35,121.53-92,182.4-61.84,62-150.69,87.95-267.21,85.66l-49.31-1.1"/><path class="b" d="M469.58,924.87a75.82,75.82,0,1,1,74.87-76.76A75.91,75.91,0,0,1,469.58,924.87Zm-1.51-121.61a45.79,45.79,0,1,0,46.36,45.22A45.85,45.85,0,0,0,468.06,803.26Z"/></svg>