<svg xmlns="http://www.w3.org/2000/svg" viewBox="0 0 354 38.64196"><defs><style>.a{fill:#f5f5ff;}.b{fill:#c63214;}.c{fill:#151568;}.d{fill:#8a8a9b;}</style></defs><title>Logo_Long_01</title><path class="a" d="M7.28625,6.74341H22.11078c3.74974,0,4.65087.11627,5.75548.72675a3.44535,3.44535,0,0,1,1.744,3.28466,22.70713,22.70713,0,0,1-1.24987,6.1624,6.11786,6.11786,0,0,1-4.30212,4.12761,21.7719,21.7719,0,0,1-4.53452.31976H10.04757L9.03025,26.13173H3.15857ZM19.6109,16.65555c1.7151,0,2.41272-.20342,2.965-.843a4.96076,4.96076,0,0,0,.814-2.79052A1.27251,1.27251,0,0,0,22.634,11.685a3.97605,3.97605,0,0,0-1.91845-.23254H12.14046L11.036,16.65555Z"/><path class="a" d="M35.5698,6.74341h5.90087L38.36032,21.33554H51.70258l-1.01747,4.79619H31.44226Z"/><path class="a" d="M68.09724,6.74341h7.90647l6.48216,19.38832H76.03276L74.841,22.67263H62.34176l-2.587,3.4591H53.06921Zm5.552,11.88883-2.558-7.7321-5.78453,7.7321Z"/><path class="a" d="M92.45689,19.417,84.05628,6.74341H91.585l4.82517,8.02274,8.19726-8.02274h7.38314L98.38681,19.417l-1.4535,6.71471H91.00353Z"/><path class="a" d="M115.65354,6.74341h17.499c2.23814,0,3.40086.17444,4.27293.69763a2.78422,2.78422,0,0,1,1.51146,2.7033,9.323,9.323,0,0,1-1.24987,4.65087,3.82947,3.82947,0,0,1-2.84862,1.5116c2.00574.20342,2.965,1.16272,2.965,2.87767a7.59618,7.59618,0,0,1-2.12208,5.37755c-1.24987,1.19184-2.70323,1.5697-5.84263,1.5697H111.526Zm13.10972,15.08626c1.39526,0,1.6859-.02905,2.151-.29071a2.35191,2.35191,0,0,0,.98827-1.9475,1.096,1.096,0,0,0-.69763-1.16272,5.13881,5.13881,0,0,0-1.86035-.14539H118.9382l-.72668,3.54632Zm.90112-7.35416c1.36607,0,1.83116-.08722,2.26719-.407a2.20988,2.20988,0,0,0,.814-1.715,1.07321,1.07321,0,0,0-.75573-1.16272,5.06174,5.06174,0,0,0-1.74415-.14539h-9.76682l-.72668,3.43Z"/><path class="a" d="M168.81937,7.47016c1.22082.61041,1.86035,1.97655,1.86035,3.95324a30.19818,30.19818,0,0,1-.95922,5.81358c-.72668,3.28466-1.33716,4.91246-2.41272,6.2205-1.45336,1.74407-3.37181,2.558-6.54026,2.76147-1.22082.0581-3.74974.11627-6.33677.11627-6.77281,0-8.34251-.14539-9.94126-.93017-1.22082-.61048-1.86035-1.94757-1.86035-3.89514a34.42041,34.42041,0,0,1,1.10462-6.48216c1.10462-5.116,2.49988-6.9763,5.92992-7.90647,1.6859-.46509,3.5753-.58129,8.51681-.58129C165.9998,6.54,167.13347,6.62714,168.81937,7.47016Zm-18.31282,5.4066a20.55651,20.55651,0,0,0-1.54051,6.59843c0,1.80218.87193,2.12194,5.87168,2.12194,2.61608,0,4.09849-.02905,5.116-.11627,2.26733-.20349,3.11021-1.0755,3.80784-3.89514a23.209,23.209,0,0,0,.72668-4.27293c0-1.8313-.66844-2.03479-6.62741-2.03479C152.2507,11.278,151.29148,11.4815,150.50655,12.87676Z"/><path class="a" d="M200.27139,7.47016c1.22082.61041,1.86035,1.97655,1.86035,3.95324a30.19818,30.19818,0,0,1-.95922,5.81358c-.72668,3.28466-1.33716,4.91246-2.41258,6.2205-1.4535,1.74407-3.37195,2.558-6.5404,2.76147-1.22082.0581-3.74974.11627-6.33677.11627-6.77281,0-8.34251-.14539-9.94126-.93017-1.22082-.61048-1.86035-1.94757-1.86035-3.89514a34.40771,34.40771,0,0,1,1.10462-6.48216c1.10462-5.116,2.49988-6.9763,5.92992-7.90647,1.6859-.46509,3.5753-.58129,8.51681-.58129C197.45182,6.54,198.58548,6.62714,200.27139,7.47016Zm-18.31282,5.4066a20.5528,20.5528,0,0,0-1.54051,6.59843c0,1.80218.87193,2.12194,5.87168,2.12194,2.61608,0,4.09863-.02905,5.116-.11627,2.26733-.20349,3.11021-1.0755,3.80784-3.89514a23.209,23.209,0,0,0,.72668-4.27293c0-1.8313-.66858-2.03479-6.62741-2.03479C183.70271,11.278,182.74349,11.4815,181.95857,12.87676Z"/><path class="a" d="M208.78876,6.74341h5.90087l-1.54065,7.238h3.11021l9.53442-7.238h8.10982l-13.16768,9.59245,10.11556,9.79587h-8.546l-7.17965-7.44139h-2.965L210.562,26.13173h-5.90073Z"/><path class="b" d="M238.40976,6.74341h20.58015l-.95922,4.38927H243.35141l-.843,3.866H256.49l-.95922,4.38927h-13.9526l-1.42431,6.74376h-5.87168Z"/><path class="b" d="M263.699,6.74341h5.90087l-4.12768,19.38832h-5.90073Z"/><path class="b" d="M273.08847,6.74341h6.51121l4.53467,14.65023L295.06388,6.74341h6.56931L286.77947,26.13173H279.309Z"/><path class="b" d="M326.66128,6.74341l-.93017,4.38927H310.09247l-.72668,3.34283h14.79562l-.814,3.837H308.552l-.72668,3.43h15.871l-.93017,4.38927H301.08152l4.12754-19.38832Z"/><path class="a" d="M343.50761,7.01075c-.31368,6.55793-1.89113,11.58739-7.03058,17.7728C331.24147,31.085,323.135,34.021,312.3838,34.021H.99007L0,38.642H312.3838c11.96713,0,21.08134-3.78449,27.08809-11.02514a33.04242,33.04242,0,0,0,8.07681-20.192L345.92923,5.6164Z"/><polygon class="a" points="336.923 13.371 345.809 6.628 352.546 15.518 353.458 8.885 346.72 0 337.835 6.738 336.923 13.371"/><path class="c" d="M346.721,6.89365"/><path class="d" d="M347.211,38.642h-.57734V34.78554h-1.45477v-.53108h3.47532v.53108H347.211Zm6.789,0h-.57734v-3.8218l-.02313.06931-.03469.0808-.03441.08088L351.79472,38.642h-.55421l-1.53572-3.5447-.03469-.06924-.03441-.0808a.769.769,0,0,1-.03469-.0808V38.642h-.57734V34.25445h.93525l1.20065,2.81724.1963.45028.09251.21936.05782.15012.16161-.36947.18474-.45028,1.20065-2.81724H354Z"/></svg>