<svg xmlns="http://www.w3.org/2000/svg" viewBox="0 0 136 109.07583"><defs><style>.a{fill:#f5f5ff;}.b{fill:#c63214;}</style></defs><title>Logo_Square_01</title><path class="a" d="M15.55226,0H66.22019c12.816,0,15.89593.3974,19.67134,2.48392,3.974,2.18557,5.96073,5.96073,5.96073,11.22644,0,5.06665-1.88746,14.207-4.27185,21.06211-2.68226,7.45128-8.04726,12.61722-14.704,14.10752-4.07327.7948-7.74891,1.09291-15.49829,1.09291H24.99005L20.06849,73.394H0ZM57.676,33.87815c5.86193,0,8.24632-.69527,10.13378-2.88108,1.58959-1.987,2.782-5.961,2.782-9.53756,0-2.38439-.7948-3.77516-2.58345-4.57-1.58911-.69551-2.38439-.7948-6.557-.7948H32.14322L28.3683,33.87815Z"/><path class="b" d="M30.19855,80.97185v-.00014a15.24169,15.24169,0,0,0-.70643-1.49731c-.2232-.42614-.46988-.859-.77843-1.36549-.51971-.8479-1.09335-1.69156-1.70457-2.50743-.55-.73634-1.15146-1.48089-1.79053-2.21681.63839-.73415,1.24071-1.47883,1.79286-2.21681.61053-.81436,1.18493-1.65994,1.708-2.51414.30191-.49678.55482-.9414.7722-1.358a15.13344,15.13344,0,0,0,.70807-1.507l1.1351-2.86828-2.86821,1.13537a15.14253,15.14253,0,0,0-1.50087.70485c-.423.22094-.87.47515-1.36734.77754-.85119.52114-1.6956,1.09485-2.50948,1.705-.73743.55167-1.48143,1.15344-2.21517,1.79122-.73387-.638-1.4776-1.23955-2.21407-1.7904-.815-.61094-1.66049-1.18534-2.514-1.70785-.49507-.30116-.93976-.554-1.358-.7722a15.15712,15.15712,0,0,0-1.5069-.70814l-2.86814-1.13537,1.1351,2.86828a15.11017,15.11017,0,0,0,.70485,1.501c.22122.42354.47542.87063.77754,1.36754.52108.85105,1.09479,1.69539,1.705,2.50921.55235.73853,1.15488,1.48362,1.79368,2.21818-.63873.73565-1.23982,1.47979-1.7893,2.21531-.61163.81614-1.18609,1.661-1.70792,2.51236-.30226.49623-.55543.94044-.77316,1.35618a15.27725,15.27725,0,0,0-.70957,1.50334l-1.14858,2.88292,2.883-1.1481a15.21649,15.21649,0,0,0,1.49759-.70649c.4258-.22286.85947-.47008,1.36556-.77836.84845-.52,1.69231-1.09376,2.50764-1.70484.73709-.55058,1.4826-1.15276,2.21962-1.79286.737.64,1.482,1.242,2.218,1.7919.81539.61108,1.66035,1.18548,2.51236,1.70771.50376.30691.93531.5529,1.35645.7733a15.35067,15.35067,0,0,0,1.50354.70964L31.3472,83.855Z"/><polygon class="b" points="116.081 51 126.47 42.096 135.367 52.49 136 44.302 127.102 33.914 116.713 42.811 116.081 51"/><path class="b" d="M56.91158,101.93957l7.78027.26868c20.67552.71255,36.35056-4.96708,47.57126-16.23757,10.468-10.51424,14.877-21.01921,16.68792-32.75765l1.21936-12.80626-3.1409-4.25414-3.724,3.777-1.09434,11.96781c-1.53178,10.99245-4.95721,19.21823-14.5563,28.84494-9.77865,9.80745-23.82939,13.908-42.25574,13.54614l-7.79844-.17374"/><path class="b" d="M48.32375,109.07489A11.99043,11.99043,0,1,1,60.164,96.93613,12.004,12.004,0,0,1,48.32375,109.07489Zm-.23942-19.23068a7.24174,7.24174,0,1,0,7.33133,7.151A7.24991,7.24991,0,0,0,48.08433,89.84421Z"/></svg>